<svg xmlns="http://www.w3.org/2000/svg" viewBox="0 0 301 60" fill="none">
  <defs>
    <linearGradient id="g" x1="101.616" y1="31.7338" x2="28.3697" y2="-27.0399" gradientUnits="userSpaceOnUse">
      <stop stop-color="#D6AA00"/><stop offset="0.12" stop-color="#D6AB02"/><stop offset="0.2" stop-color="#D9AF0C"/><stop offset="0.27" stop-color="#DDB61B"/><stop offset="0.33" stop-color="#E4C031"/><stop offset="0.39" stop-color="#ECCC4D"/><stop offset="0.45" stop-color="#F6DC70"/><stop offset="0.49" stop-color="#FFEA8F"/><stop offset="0.5" stop-color="#F8DF78"/><stop offset="0.51" stop-color="#EFD158"/><stop offset="0.52" stop-color="#E7C53D"/><stop offset="0.54" stop-color="#E0BB27"/><stop offset="0.55" stop-color="#DBB416"/><stop offset="0.57" stop-color="#D8AE0A"/><stop offset="0.6" stop-color="#D6AB03"/><stop offset="0.68" stop-color="#D6AB02"/><stop offset="0.74" stop-color="#D6AB03"/><stop offset="0.76" stop-color="#D8AE0A"/><stop offset="0.78" stop-color="#DBB416"/><stop offset="0.79" stop-color="#E0BB27"/><stop offset="0.8" stop-color="#E7C53D"/><stop offset="0.81" stop-color="#EFD158"/><stop offset="0.82" stop-color="#FFEA8F"/><stop offset="0.83" stop-color="#FAE37F"/><stop offset="0.84" stop-color="#F3D765"/><stop offset="0.85" stop-color="#ECCD4F"/><stop offset="0.87" stop-color="#E7C63E"/><stop offset="0.89" stop-color="#E4C032"/><stop offset="0.92" stop-color="#E2BD2B"/><stop offset="1" stop-color="#E2BD2A"/>
    </linearGradient>
  </defs>
  <path d="M3.78601 24.8868V25.144C3.50823 25.144 3.30247 25.1852 3.15844 25.2366C3.0144 25.2881 2.92181 25.4012 2.86008 25.5453C2.80864 25.6996 2.77778 25.9362 2.77778 26.2551V32.7161C2.77778 33.0247 2.79835 33.2613 2.84979 33.4156C2.90123 33.57 2.99383 33.6728 3.14815 33.7243C3.30247 33.7757 3.50823 33.8066 3.78601 33.8272V34.0844C3.56996 34.0638 3.29218 34.0535 2.95268 34.0535C2.61317 34.0535 2.27366 34.0535 1.92387 34.0535C1.53292 34.0535 1.16255 34.0535 0.823045 34.0535C0.483539 34.0535 0.205761 34.0741 0 34.0844V33.8272C0.288066 33.8066 0.504115 33.7757 0.648148 33.7243C0.792181 33.6728 0.884774 33.57 0.936214 33.4156C0.987654 33.2613 1.00823 33.0247 1.00823 32.7161V26.2551C1.00823 25.9362 0.987654 25.6996 0.936214 25.5453C0.884774 25.391 0.792181 25.2881 0.648148 25.2366C0.504115 25.1852 0.288066 25.144 0 25.144V24.8868C0.205761 24.8868 0.483539 24.9074 0.823045 24.9177C1.16255 24.928 1.53292 24.928 1.92387 24.928C2.27366 24.928 2.61317 24.928 2.95268 24.9177C3.29218 24.9177 3.56996 24.8971 3.78601 24.8868Z" fill="url(#g)"/>
  <path d="M13.1996 24.8868V25.144C12.9218 25.1646 12.7058 25.2366 12.5617 25.3292C12.4177 25.4321 12.3148 25.5864 12.2634 25.8025C12.2119 26.0185 12.1914 26.3169 12.1914 26.7078V34.1564C12.1091 34.1564 12.0267 34.1461 11.9342 34.1461C11.8416 34.1461 11.749 34.1461 11.6358 34.1564L6.03909 26.5535V32.1811C6.03909 32.6029 6.06996 32.9218 6.1214 33.1481C6.17284 33.3745 6.28601 33.5391 6.47119 33.642C6.64609 33.7449 6.92387 33.8066 7.28395 33.8477V34.1049C7.11934 34.0844 6.90329 34.0741 6.64609 34.0741C6.38889 34.0741 6.14198 34.0741 5.90535 34.0741C5.69959 34.0741 5.48354 34.0741 5.27778 34.0741C5.06173 34.0741 4.88683 34.0947 4.75309 34.1049V33.8477C5.04115 33.8169 5.2572 33.7449 5.40123 33.6523C5.54527 33.5597 5.63786 33.3951 5.6893 33.179C5.74074 32.963 5.76132 32.6646 5.76132 32.284V26.2654C5.76132 25.9465 5.74074 25.7099 5.6893 25.5556C5.63786 25.4012 5.54527 25.2984 5.40123 25.2469C5.2572 25.1955 5.04115 25.1543 4.75309 25.1543V24.8971C4.89712 24.8971 5.07202 24.9177 5.27778 24.928C5.49383 24.928 5.69959 24.9383 5.90535 24.9383C6.11111 24.9383 6.2963 24.9383 6.49177 24.928C6.68724 24.928 6.85185 24.9074 6.99588 24.8971L11.8827 31.3992V26.821C11.8827 26.3992 11.8519 26.07 11.8004 25.8436C11.749 25.6173 11.6358 25.4527 11.4609 25.3498C11.286 25.2469 11.0082 25.1749 10.6379 25.1543V24.8971C10.8025 24.8971 11.0185 24.9177 11.286 24.928C11.5535 24.928 11.8004 24.9383 12.0267 24.9383C12.2531 24.9383 12.4588 24.9383 12.6749 24.928C12.8909 24.928 13.0556 24.9074 13.1893 24.8971L13.1996 24.8868Z" fill="url(#g)"/>
  <path d="M22.2634 24.8868V25.144C22.0885 25.2058 21.9033 25.3395 21.6872 25.5556C21.4712 25.7716 21.2963 26.1008 21.1214 26.5535L18.2613 34.1564C18.2099 34.1564 18.1584 34.1564 18.0967 34.1564C18.035 34.1564 17.9835 34.1564 17.9218 34.1564C17.8601 34.1564 17.7984 34.1564 17.7469 34.1564C17.6955 34.1564 17.6337 34.1564 17.5823 34.1564L14.3107 25.9774C14.177 25.6584 14.0432 25.4424 13.8889 25.3292C13.7346 25.2161 13.5905 25.1543 13.4671 25.144V24.8868C13.6934 24.8868 13.9712 24.9074 14.2901 24.9177C14.6193 24.9177 14.9383 24.928 15.2469 24.928C15.6276 24.928 15.9877 24.928 16.3272 24.9177C16.6564 24.9177 16.9239 24.8971 17.1296 24.8868V25.144C16.8416 25.144 16.6255 25.1852 16.4712 25.2366C16.3169 25.2881 16.2346 25.4012 16.214 25.5453C16.1934 25.6996 16.2449 25.9259 16.358 26.2346L18.7551 32.3971L18.5082 32.6955L20.463 27.4794C20.679 26.893 20.7922 26.4403 20.7922 26.1008C20.7922 25.7613 20.6996 25.5144 20.5041 25.3704C20.3086 25.2263 20.0412 25.144 19.6811 25.1337V24.8765C19.9691 24.8765 20.2366 24.8971 20.4938 24.9074C20.751 24.9177 21.0082 24.9177 21.2551 24.9177C21.4609 24.9177 21.6461 24.9177 21.8107 24.9074C21.9753 24.8971 22.1193 24.8868 22.2428 24.8765L22.2634 24.8868Z" fill="url(#g)"/>
  <path d="M29.4342 24.8868C29.4033 25.2469 29.3724 25.5864 29.3621 25.9259C29.3519 26.2551 29.3416 26.5123 29.3416 26.6872C29.3416 26.8621 29.3416 27.0062 29.3519 27.1605C29.3519 27.3148 29.3724 27.4383 29.3827 27.5412H29.0844C29.0123 26.9444 28.8992 26.4712 28.7449 26.1317C28.5905 25.7922 28.3745 25.5453 28.1173 25.4012C27.8498 25.2572 27.5103 25.1852 27.0782 25.1852H26.358C26.0905 25.1852 25.8848 25.2058 25.751 25.2469C25.6173 25.2881 25.5247 25.3807 25.4733 25.5247C25.4218 25.6687 25.4012 25.8745 25.4012 26.1626V32.8395C25.4012 33.1276 25.4218 33.3436 25.4733 33.4774C25.5247 33.6111 25.6173 33.7037 25.751 33.7551C25.8848 33.8066 26.0905 33.8169 26.358 33.8169H27.0988C27.5412 33.8169 27.9115 33.7346 28.2099 33.57C28.5082 33.4053 28.7551 33.1379 28.93 32.7572C29.1049 32.3765 29.249 31.8621 29.3313 31.2037H29.6296C29.5988 31.4712 29.5885 31.821 29.5885 32.2428C29.5885 32.428 29.5885 32.6955 29.6091 33.035C29.6193 33.3848 29.6502 33.7449 29.6811 34.1152C29.2387 34.0947 28.7346 34.0844 28.179 34.0844C27.6235 34.0844 27.1296 34.0844 26.6975 34.0844H25.8951C25.5658 34.0844 25.216 34.0844 24.8457 34.0844C24.4753 34.0844 24.0946 34.0844 23.7037 34.0947C23.3128 34.1049 22.9527 34.1049 22.6029 34.1152V33.858C22.8909 33.8375 23.107 33.8066 23.251 33.7551C23.3951 33.7037 23.4877 33.6008 23.5391 33.4465C23.5905 33.2922 23.6111 33.0556 23.6111 32.7469V26.286C23.6111 25.9671 23.5905 25.7305 23.5391 25.5761C23.4877 25.4218 23.3951 25.3189 23.251 25.2675C23.107 25.2161 22.8909 25.1749 22.6029 25.1749V24.9177C22.9527 24.9177 23.3128 24.928 23.7037 24.9383C24.0946 24.9383 24.4753 24.9383 24.856 24.9486C25.2366 24.9588 25.5864 24.9486 25.9054 24.9486H26.6975C27.0988 24.9486 27.5514 24.9486 28.0556 24.9486C28.5597 24.9486 29.0226 24.9383 29.4136 24.9177L29.4342 24.8868ZM27.3354 29.3519V29.6091H25.0103V29.3519H27.3354ZM27.7161 27.6337C27.6852 28.1276 27.6646 28.5082 27.6749 28.7654C27.6749 29.0226 27.6749 29.2696 27.6749 29.4856C27.6749 29.7017 27.6749 29.9383 27.6852 30.2058C27.6852 30.463 27.716 30.8436 27.7469 31.3375H27.4486C27.4074 31.0391 27.3354 30.7613 27.2428 30.4938C27.1502 30.2263 27.0062 30.0103 26.8107 29.856C26.6152 29.6914 26.3375 29.6091 25.9671 29.6091V29.3519C26.2346 29.3519 26.4609 29.2901 26.6255 29.177C26.8004 29.0638 26.9342 28.9198 27.037 28.7449C27.1399 28.57 27.2222 28.3848 27.2737 28.1893C27.3354 27.9938 27.3765 27.8086 27.3971 27.6337H27.7161Z" fill="url(#g)"/>
  <path d="M33.8683 24.7325C34.3519 24.7325 34.7325 24.784 34.9897 24.8868C35.2469 24.9897 35.4732 25.1029 35.6687 25.2263C35.7716 25.2881 35.8539 25.3292 35.9259 25.3601C35.9877 25.3909 36.0494 25.4012 36.1111 25.4012C36.1934 25.4012 36.2654 25.3498 36.2963 25.2572C36.3374 25.1646 36.3683 25.0206 36.3992 24.8251H36.6975C36.6975 24.9897 36.677 25.1852 36.6667 25.4012C36.6564 25.6173 36.6461 25.9054 36.6358 26.2654C36.6255 26.6255 36.6358 27.0988 36.6358 27.6955H36.3374C36.3066 27.2531 36.214 26.8313 36.0391 26.4198C35.8642 26.0082 35.6276 25.679 35.3189 25.4115C35.0103 25.144 34.6193 25.0103 34.1358 25.0103C33.714 25.0103 33.3539 25.1337 33.0761 25.3909C32.7984 25.6482 32.6543 25.9877 32.6543 26.4095C32.6543 26.7695 32.7469 27.0782 32.9321 27.3251C33.1173 27.572 33.3745 27.8086 33.7037 28.0453C34.0329 28.2716 34.4342 28.5391 34.8971 28.8375C35.3189 29.1152 35.7099 29.393 36.0494 29.6708C36.3889 29.9486 36.6564 30.2469 36.8519 30.5761C37.0473 30.9054 37.1502 31.3066 37.1502 31.7901C37.1502 32.356 37.0062 32.8292 36.7284 33.1996C36.4506 33.57 36.0802 33.8477 35.607 34.0329C35.1337 34.2181 34.6296 34.3107 34.0638 34.3107C33.5494 34.3107 33.1481 34.2593 32.8498 34.1564C32.5514 34.0535 32.2942 33.9403 32.0782 33.8272C31.8827 33.7037 31.7387 33.642 31.6358 33.642C31.5535 33.642 31.4815 33.6934 31.4506 33.786C31.4095 33.8786 31.3786 34.0226 31.358 34.2181H31.0597C31.0802 34.0226 31.0905 33.786 31.0905 33.5185C31.0905 33.251 31.0905 32.9012 31.1008 32.4691C31.1008 32.037 31.1008 31.4918 31.1008 30.8333H31.3992C31.43 31.3889 31.5329 31.9136 31.6975 32.3868C31.8621 32.8704 32.1091 33.2613 32.4383 33.5494C32.7778 33.8477 33.2202 33.9918 33.7757 33.9918C34.0844 33.9918 34.3519 33.9403 34.5988 33.8272C34.8457 33.714 35.0411 33.5494 35.1955 33.3128C35.3395 33.0864 35.4218 32.7881 35.4218 32.4383C35.4218 32.0885 35.3395 31.7696 35.1749 31.5021C35.0103 31.2346 34.784 30.9774 34.4856 30.7407C34.1872 30.5041 33.8477 30.2675 33.4465 30.0206C33.035 29.7634 32.6543 29.4959 32.3045 29.2284C31.9444 28.9609 31.6667 28.6523 31.4506 28.3128C31.2346 27.9733 31.1317 27.5514 31.1317 27.0679C31.1317 26.5329 31.2654 26.0905 31.5226 25.7407C31.7798 25.3909 32.1193 25.144 32.5412 24.9794C32.963 24.8148 33.4156 24.7325 33.8889 24.7325H33.8683Z" fill="url(#g)"/>
  <path d="M45.8745 24.8868C45.8436 25.2881 45.8128 25.679 45.8025 26.0494C45.7922 26.43 45.7819 26.7181 45.7819 26.9136C45.7819 27.1091 45.7819 27.3045 45.7922 27.4691C45.7922 27.644 45.8128 27.7984 45.823 27.9218H45.5247C45.4012 27.2222 45.2572 26.677 45.0823 26.286C44.9074 25.8951 44.6811 25.607 44.393 25.4321C44.1152 25.2572 43.7346 25.1749 43.2819 25.1749H42.8601V32.6029C42.8601 32.963 42.8909 33.2202 42.9527 33.3951C43.0144 33.57 43.1481 33.6831 43.3539 33.7449C43.5597 33.8066 43.8477 33.8375 44.2284 33.8375V34.0947C43.9712 34.0741 43.6317 34.0638 43.2099 34.0638C42.7881 34.0638 42.3663 34.0638 41.9342 34.0638C41.5021 34.0638 41.0597 34.0638 40.6584 34.0638C40.2675 34.0638 39.9486 34.0844 39.7016 34.0947V33.8375C40.072 33.8375 40.3601 33.7963 40.5658 33.7449C40.7716 33.6934 40.9053 33.57 40.9671 33.3951C41.0391 33.2202 41.07 32.9527 41.07 32.6029V25.1749H40.6379C40.1852 25.1749 39.8148 25.2572 39.5267 25.4321C39.2387 25.607 39.0123 25.8951 38.8374 26.286C38.6626 26.677 38.5185 27.2222 38.4053 27.9218H38.107C38.1276 27.7881 38.1379 27.644 38.1379 27.4691C38.1379 27.2942 38.1379 27.1091 38.1379 26.9136C38.1379 26.7181 38.1379 26.4198 38.1173 26.0494C38.107 25.6687 38.0761 25.2778 38.0453 24.8868C38.4259 24.8868 38.8477 24.9074 39.3107 24.9177C39.7737 24.9177 40.2366 24.928 40.6893 24.928H43.2099C43.6728 24.928 44.1358 24.928 44.5885 24.9177C45.0514 24.9177 45.4733 24.8971 45.8539 24.8868H45.8745Z" fill="url(#g)"/>
  <path d="M50.4733 24.8868V25.144C50.1955 25.144 49.9897 25.1852 49.8457 25.2366C49.7016 25.2881 49.6091 25.4012 49.5473 25.5453C49.4959 25.6996 49.465 25.9362 49.465 26.2551V32.7161C49.465 33.0247 49.4856 33.2613 49.537 33.4156C49.5885 33.57 49.6811 33.6728 49.8354 33.7243C49.9897 33.7757 50.1955 33.8066 50.4733 33.8272V34.0844C50.2572 34.0638 49.9794 34.0535 49.6399 34.0535C49.3004 34.0535 48.9609 34.0535 48.6111 34.0535C48.2202 34.0535 47.8498 34.0535 47.5103 34.0535C47.1708 34.0535 46.893 34.0741 46.6872 34.0844V33.8272C46.9753 33.8066 47.1914 33.7757 47.3354 33.7243C47.4794 33.6728 47.572 33.57 47.6235 33.4156C47.6749 33.2613 47.6955 33.0247 47.6955 32.7161V26.2551C47.6955 25.9362 47.6749 25.6996 47.6235 25.5453C47.572 25.391 47.4794 25.2881 47.3354 25.2366C47.1914 25.1852 46.9753 25.144 46.6872 25.144V24.8868C46.893 24.8868 47.1708 24.9074 47.5103 24.9177C47.8498 24.928 48.2202 24.928 48.6111 24.928C48.9609 24.928 49.3004 24.928 49.6399 24.9177C49.9794 24.9177 50.2572 24.8971 50.4733 24.8868Z" fill="url(#g)"/>
  <path d="M51.43 24.8868C51.6461 24.8868 51.9239 24.9074 52.2634 24.9177C52.6029 24.928 52.9424 24.928 53.2819 24.928C53.7037 24.928 54.1152 24.928 54.4959 24.9177C54.8765 24.9074 55.144 24.9074 55.3086 24.9074C56.0905 24.9074 56.7387 25 57.2428 25.1852C57.7469 25.3704 58.1276 25.6379 58.3848 25.9774C58.6317 26.3169 58.7654 26.7181 58.7654 27.1811C58.7654 27.4691 58.714 27.7572 58.6008 28.0658C58.4877 28.3745 58.2922 28.642 58.0144 28.8889C57.7366 29.1461 57.356 29.3519 56.8724 29.5062C56.3889 29.6708 55.7716 29.7428 55.0309 29.7428H53.7757V29.4856H54.8971C55.4424 29.4856 55.8642 29.393 56.1523 29.1975C56.4403 29.0021 56.6358 28.7449 56.7387 28.4156C56.8416 28.0864 56.893 27.7263 56.893 27.3251C56.893 26.6358 56.7593 26.1111 56.4918 25.7305C56.2243 25.3498 55.7613 25.1646 55.0926 25.1646C54.7325 25.1646 54.5062 25.2366 54.393 25.3909C54.2798 25.5453 54.2284 25.8436 54.2284 26.286V32.7469C54.2284 33.0556 54.2593 33.2922 54.3107 33.4465C54.3621 33.6008 54.465 33.7037 54.6091 33.7551C54.7531 33.8066 54.9588 33.8375 55.2366 33.858V34.1152C55.0206 34.0947 54.7428 34.0844 54.4033 34.0844C54.0638 34.0844 53.7243 34.0844 53.3745 34.0844C52.9835 34.0844 52.6235 34.0844 52.284 34.0844C51.9444 34.0844 51.6667 34.1049 51.4506 34.1152V33.858C51.7387 33.8375 51.9547 33.8066 52.0988 33.7551C52.2428 33.7037 52.3354 33.6008 52.3868 33.4465C52.4383 33.2922 52.4589 33.0556 52.4589 32.7469V26.286C52.4589 25.9671 52.4383 25.7305 52.3868 25.5761C52.3354 25.4218 52.2428 25.3189 52.0988 25.2675C51.9547 25.2161 51.7387 25.1749 51.4506 25.1749V24.9177L51.43 24.8868ZM53.7654 29.5165C54.177 29.537 54.5165 29.5576 54.784 29.5782C55.0617 29.5988 55.2881 29.6193 55.4835 29.6399C55.679 29.6605 55.8539 29.6811 56.0082 29.7016C56.7284 29.7737 57.2634 29.9383 57.6029 30.2058C57.9424 30.4733 58.179 30.8745 58.2922 31.4095L58.5905 32.7572C58.6728 33.1173 58.7551 33.3642 58.8477 33.5185C58.9403 33.6728 59.0741 33.7449 59.249 33.7346C59.3724 33.7346 59.4753 33.7037 59.5576 33.642C59.6399 33.5802 59.7325 33.4877 59.8148 33.3745L60 33.5288C59.784 33.7963 59.5473 33.9918 59.3107 34.1255C59.0741 34.2593 58.7551 34.3107 58.3848 34.3107C57.963 34.3107 57.6132 34.2181 57.3251 34.0226C57.037 33.8272 56.8416 33.4568 56.7387 32.9115L56.4918 31.6049C56.4198 31.2449 56.3374 30.9156 56.2551 30.6379C56.1728 30.3601 56.0391 30.144 55.8848 29.9897C55.7305 29.8354 55.4938 29.7531 55.1955 29.7531H53.786L53.7551 29.5268L53.7654 29.5165Z" fill="url(#g)"/>
  <path d="M42.9321 1.49177C42.9115 2.83951 41.6152 3.7963 40.3292 3.40535C37.1811 2.45885 32.6543 1.87243 29.0432 1.75926C27.8292 1.71811 18.8066 2.01646 14.8457 8.85803C10.0206 17.2119 15.3807 23.4877 15.3807 23.4877H29.0741C26.7901 22.1399 25.072 20.8025 23.8169 19.5988C21.3786 17.2634 20.1543 13.858 20.9156 10.5761C21.5638 7.79835 23.7037 4.87654 30.1235 4.59877C42.6543 4.94856 42.9218 19.7017 42.9218 19.7017L44.0638 20.9671L45.1646 19.7017V1.48148L44.0638 0L42.9321 1.49177Z" fill="url(#g)"/>
  <path d="M17.0679 57.5823C17.0885 56.2346 18.3848 55.2778 19.6708 55.6687C22.8189 56.6152 27.3457 57.2017 30.9568 57.3148C32.1708 57.356 41.1934 57.0576 45.1543 50.2161C49.9794 41.8621 44.6193 35.5864 44.6193 35.5864H30.9259C33.2099 36.9342 34.928 38.2716 36.1831 39.4753C38.6214 41.8107 39.8457 45.2161 39.0844 48.4979C38.4362 51.2757 36.2963 54.1975 29.8765 54.4753C17.3457 54.1255 17.0782 39.3724 17.0782 39.3724L15.9362 38.107L14.8354 39.3724V57.5926L15.9362 59.0741L17.0679 57.5823Z" fill="url(#g)"/>
  <path d="M47.9321 9.07407C47.9321 7.72634 48.6523 6.52263 49.9486 6.15226C50.0309 6.13169 50.1132 6.11111 50.2058 6.11111C51.5741 5.98766 52.7675 7.04733 52.9835 8.40535C53.035 8.74486 53.0658 9.09465 53.0556 9.44445C53.0247 10.8745 52.5309 13.3025 50.1029 13.6523C47.6749 14.0021 48.4774 12.6029 48.8889 12.5C51.3786 11.9136 51.0391 10.9156 51.0391 10.9156V10.7922C51.0391 10.7922 47.9321 10.8539 47.9321 9.07407Z" fill="url(#g)"/>
  <path d="M81.5396 38.3041L83.0776 35.8285C83.7319 36.3558 84.3716 36.7953 84.9966 37.1469C85.6313 37.4886 86.271 37.7426 86.9155 37.9086C87.5601 38.0648 88.2192 38.1429 88.8931 38.1429C89.811 38.1429 90.6118 37.9965 91.2954 37.7035C91.979 37.4105 92.5112 37.0004 92.8921 36.473C93.2729 35.9457 93.4634 35.3402 93.4634 34.6566C93.4634 33.8851 93.2388 33.2455 92.7896 32.7377C92.3501 32.2299 91.7739 31.7953 91.061 31.434C90.3481 31.0629 89.5864 30.7113 88.7759 30.3793C88.063 30.0863 87.3501 29.7689 86.6372 29.4271C85.9341 29.0756 85.2896 28.6703 84.7036 28.2113C84.1274 27.7523 83.6636 27.1957 83.312 26.5414C82.9702 25.8773 82.7993 25.0765 82.7993 24.139C82.7993 22.9379 83.1021 21.8832 83.7075 20.975C84.313 20.0668 85.1479 19.3636 86.2124 18.8656C87.2866 18.3676 88.522 18.1185 89.9185 18.1185C90.8657 18.1185 91.8325 18.2455 92.8188 18.4994C93.8149 18.7435 94.7866 19.1097 95.7339 19.598L94.4302 22.2201C93.7466 21.8197 93.019 21.5072 92.2476 21.2826C91.4858 21.058 90.7485 20.9457 90.0356 20.9457C89.2544 20.9457 88.5659 21.0726 87.9702 21.3265C87.3843 21.5804 86.9253 21.9369 86.5933 22.3959C86.2612 22.8549 86.0952 23.392 86.0952 24.0072C86.0952 24.7006 86.3052 25.2865 86.7251 25.765C87.145 26.2435 87.6919 26.6635 88.3657 27.0248C89.0493 27.3763 89.772 27.7181 90.5337 28.0502C91.2759 28.3822 92.0132 28.7338 92.7456 29.1049C93.4878 29.4662 94.1567 29.8959 94.7524 30.3939C95.3579 30.892 95.8413 31.4877 96.2026 32.181C96.5737 32.8646 96.7593 33.6898 96.7593 34.6566C96.7593 35.9164 96.437 37.0199 95.7925 37.9672C95.1479 38.9047 94.2446 39.6371 93.0825 40.1644C91.9302 40.6918 90.5776 40.9554 89.0249 40.9554C87.6479 40.9554 86.3296 40.7357 85.0698 40.2963C83.8198 39.847 82.6431 39.183 81.5396 38.3041Z" fill="white"/>
  <path d="M101.46 40.516V18.5433H104.683V40.516H101.46Z" fill="white"/>
  <path d="M132.69 40.516H129.467V23.099L122.743 36.8246H120.019L113.324 23.1722V40.516H110.102V18.5433H114.233L121.381 33.3529L128.529 18.5433H132.69V40.516Z" fill="white"/>
  <path d="M156.8 18.5433V30.6722C156.8 32.8011 156.424 34.6371 155.672 36.1801C154.93 37.723 153.86 38.9047 152.464 39.725C151.067 40.5453 149.397 40.9554 147.454 40.9554C145.511 40.9554 143.841 40.5453 142.444 39.725C141.048 38.9047 139.974 37.723 139.222 36.1801C138.479 34.6371 138.108 32.8011 138.108 30.6722V18.5433H141.331V30.35C141.331 32.0101 141.57 33.4213 142.049 34.5834C142.527 35.7357 143.221 36.6146 144.129 37.2201C145.047 37.8158 146.155 38.1136 147.454 38.1136C148.753 38.1136 149.856 37.8158 150.765 37.2201C151.683 36.6146 152.381 35.7357 152.859 34.5834C153.338 33.4213 153.577 32.0101 153.577 30.35V18.5433H156.8Z" fill="white"/>
  <path d="M181.753 40.516H162.218V18.5433H165.441V37.6742H181.753V40.516Z" fill="white"/>
  <path d="M182.066 40.516H178.682L187.618 18.5433H191.075L199.996 40.516H196.612L189.332 23.3945L184.263 34.9935L182.066 40.516Z" fill="white"/>
  <path d="M210.834 40.516H207.612V21.3851H200.742V18.5433H217.704V21.3851H210.834V40.516Z" fill="white"/>
  <path d="M221.453 40.516V18.5433H235.15V21.3851H224.676V27.9623H234.549V30.8041H224.676V37.6742H235.296V40.516H221.453Z" fill="white"/>
  <path d="M258.981 18.5433V30.6722C258.981 32.8011 258.605 34.6371 257.853 36.1801C257.111 37.723 256.042 38.9047 254.645 39.725C253.249 40.5453 251.579 40.9554 249.636 40.9554C247.692 40.9554 246.022 40.5453 244.626 39.725C243.229 38.9047 242.155 37.723 241.403 36.1801C240.661 34.6371 240.29 32.8011 240.29 30.6722V18.5433H243.513V30.35C243.513 32.0101 243.752 33.4213 244.23 34.5834C244.709 35.7357 245.402 36.6146 246.31 37.2201C247.228 37.8158 248.337 38.1136 249.636 38.1136C250.934 38.1136 252.038 37.8158 252.946 37.2201C253.864 36.6146 254.562 35.7357 255.041 34.5834C255.519 33.4213 255.759 32.0101 255.759 30.35V18.5433H258.981Z" fill="white"/>
  <path d="M281.583 40.516H277.994L272.969 31.9174H267.623V40.516H264.4V18.5433H272.925C274.566 18.5433 275.972 18.8119 277.144 19.349C278.316 19.8861 279.219 20.6527 279.854 21.6488C280.489 22.6449 280.806 23.8363 280.806 25.223C280.806 26.7758 280.411 28.0844 279.62 29.1488C278.829 30.2133 277.711 30.9701 276.265 31.4193L281.583 40.516ZM267.623 29.1927H272.706C274.21 29.1927 275.386 28.851 276.236 28.1674C277.086 27.474 277.51 26.5121 277.51 25.2816C277.51 24.0609 277.086 23.1088 276.236 22.4252C275.396 21.7318 274.219 21.3851 272.706 21.3851H267.623V29.1927Z" fill="white"/>
  <path d="M284.819 38.3041L286.357 35.8285C287.011 36.3558 287.651 36.7953 288.276 37.1469C288.911 37.4886 289.55 37.7426 290.195 37.9086C290.839 38.0648 291.499 38.1429 292.172 38.1429C293.09 38.1429 293.891 37.9965 294.575 37.7035C295.258 37.4105 295.791 37.0004 296.171 36.473C296.552 35.9457 296.743 35.3402 296.743 34.6566C296.743 33.8851 296.518 33.2455 296.069 32.7377C295.629 32.2299 295.053 31.7953 294.34 31.434C293.627 31.0629 292.866 30.7113 292.055 30.3793C291.342 30.0863 290.629 29.7689 289.917 29.4271C289.213 29.0756 288.569 28.6703 287.983 28.2113C287.407 27.7523 286.943 27.1957 286.591 26.5414C286.25 25.8773 286.079 25.0765 286.079 24.139C286.079 22.9379 286.381 21.8832 286.987 20.975C287.592 20.0668 288.427 19.3636 289.492 18.8656C290.566 18.3676 291.801 18.1185 293.198 18.1185C294.145 18.1185 295.112 18.2455 296.098 18.4994C297.094 18.7435 298.066 19.1097 299.013 19.598L297.709 22.2201C297.026 21.8197 296.298 21.5072 295.527 21.2826C294.765 21.058 294.028 20.9457 293.315 20.9457C292.534 20.9457 291.845 21.0726 291.25 21.3265C290.664 21.5804 290.205 21.9369 289.873 22.3959C289.541 22.8549 289.375 23.392 289.375 24.0072C289.375 24.7006 289.584 25.2865 290.004 25.765C290.424 26.2435 290.971 26.6635 291.645 27.0248C292.329 27.3763 293.051 27.7181 293.813 28.0502C294.555 28.3822 295.292 28.7338 296.025 29.1049C296.767 29.4662 297.436 29.8959 298.032 30.3939C298.637 30.892 299.121 31.4877 299.482 32.181C299.853 32.8646 300.039 33.6898 300.039 34.6566C300.039 35.9164 299.716 37.0199 299.072 37.9672C298.427 38.9047 297.524 39.6371 296.362 40.1644C295.209 40.6918 293.857 40.9554 292.304 40.9554C290.927 40.9554 289.609 40.7357 288.349 40.2963C287.099 39.847 285.922 39.183 284.819 38.3041Z" fill="white"/>
</svg>
